<svg width="29" height="24" viewBox="0 0 29 24" fill="none" xmlns="http://www.w3.org/2000/svg">
<path id="Vector" d="M18.9563 0.206909L23.4458 7.69834H28.2303V10.3921H26.5991L25.541 22.626C25.512 22.9625 25.3527 23.2763 25.0949 23.5051C24.837 23.7338 24.4994 23.8609 24.1489 23.8611H4.35681C4.00608 23.8612 3.6681 23.7343 3.40996 23.5055C3.15182 23.2767 2.99237 22.9628 2.96326 22.626L1.90516 10.3921H0.275391V7.69834H5.05848L9.54804 0.206909L11.9689 1.5538L8.28727 7.69834H20.217L16.5368 1.5538L18.9577 0.206909H18.9563ZM23.7925 10.3921H4.71184L5.64413 21.1673H22.863L23.7953 10.3921H23.7925ZM15.6506 13.0859V18.4735H12.8551V13.0859H15.6506ZM10.0596 13.0859V18.4735H7.26412V13.0859H10.0596ZM21.2416 13.0859V18.4735H18.4461V13.0859H21.2416Z" fill="white"/>
</svg>
